#!OML:ASF F:\VICON\USERDATA\INSTALL\rory3\rory3.ASF
:FULLY-SPECIFIED
:DEGREES
467
root 17.4602 18.0825 13.0525 226.468 -87.9874 133.686
lowerback 12.8307 1.19376 1.84156
upperback 2.66805 1.81354 2.37229
thorax -4.40599 0.826578 1.15069
lowerneck -5.95607 -4.73581 -10.2024
upperneck 42.2332 -11.9356 8.30378
head 17.8723 -6.40994 3.46075
rclavicle -1.41137e-014 -3.10104e-014
rhumerus -36.7142 -18.7953 -72.7923
rradius 42.1302
rwrist 2.22001
rhand -17.9224 5.81366
rfingers 7.12502
rthumb 8.34523 -24.0015
lclavicle -1.41137e-014 -3.10104e-014
lhumerus -35.6776 13.7513 78.7299
lradius 27.039
lwrist -8.27573
lhand -17.2232 24.016
lfingers 7.12502
lthumb 9.01997 53.8032
rfemur -0.60768 -1.27754 22.3129
rtibia 24.7431
rfoot -15.6931 -7.98044
rtoes 0.554709
lfemur -21.3954 -1.33286 -15.0686
ltibia 26.8053
lfoot -5.1563 -7.10133
ltoes -23.2901
468
root 17.5903 18.0977 13.0328 228.183 -87.9151 131.974
lowerback 12.8393 1.20525 1.83868
upperback 2.66532 1.82502 2.25595
thorax -4.40987 0.832668 1.02834
lowerneck -5.99843 -4.58234 -10.3089
upperneck 42.2597 -11.7376 8.49132
head 17.8959 -6.32546 3.60513
rclavicle 1.90833e-014 1.59028e-015
rhumerus -36.519 -18.4224 -72.7587
rradius 43.0101
rwrist 1.9651
rhand -18.0905 6.07496
rfingers 7.12502
rthumb 8.18297 -23.7466
lclavicle 1.90833e-014 1.59028e-015
lhumerus -35.5766 13.3645 79.0895
lradius 26.9749
lwrist -8.78482
lhand -17.2272 23.8905
lfingers 7.12502
lthumb 9.01607 53.6778
rfemur -1.01171 -1.1443 22.3238
rtibia 24.6017
rfoot -15.4187 -8.04489
rtoes 1.49849
lfemur -21.6243 -1.26634 -15.2701
ltibia 28.6259
lfoot -5.40514 -6.12656
ltoes -23.1988
469
root 17.7186 18.1166 13.0158 232.199 -87.7657 127.888
lowerback 12.945 1.24541 1.78316
upperback 2.65437 1.86845 2.08098
thorax -4.47551 0.854714 0.867101
lowerneck -5.98662 -4.5326 -10.3144
upperneck 42.2801 -11.6673 8.5271
head 17.8976 -6.2944 3.63738
rclavicle -2.34566e-014 -2.06736e-014
rhumerus -36.2192 -17.912 -72.6554
rradius 43.6856
rwrist 1.36454
rhand -18.2192 6.2861
rfingers 7.12502
rthumb 8.05878 -23.5403
lclavicle -2.34566e-014 -2.06736e-014
lhumerus -35.563 12.9288 79.4153
lradius 27.1186
lwrist -9.42517
lhand -17.0657 24.1044
lfingers 7.12502
lthumb 9.17196 53.8849
rfemur -1.44411 -1.62926 22.114
rtibia 24.5846
rfoot -15.0921 -7.90816
rtoes 0.261874
lfemur -21.7186 -1.29279 -15.6388
ltibia 30.4496
lfoot -5.47227 -4.95327
ltoes -22.069
470
root 17.8444 18.1419 12.9933 233.012 -87.6758 127.015
lowerback 13.011 1.29083 1.76006
upperback 2.6268 1.92484 1.96546
thorax -4.53764 0.882823 0.74817
lowerneck -5.87275 -4.47234 -10.5317
upperneck 42.2822 -11.6316 8.74643
head 17.9058 -6.29772 3.79158
rclavicle 7.95139e-015 1.59028e-014
rhumerus -35.9749 -17.4527 -72.4824
rradius 44.3547
rwrist 0.852636
rhand -18.1853 6.32987
rfingers 7.12502
rthumb 8.09147 -23.4952
lclavicle 7.95139e-015 1.59028e-014
lhumerus -35.666 12.8105 79.5946
lradius 27.3035
lwrist -10.3004
lhand -16.5725 24.0728
lfingers 7.12502
lthumb 9.64786 53.8319
rfemur -1.86841 -2.0592 22.0866
rtibia 24.5752
rfoot -14.7847 -7.89282
rtoes -1.68778
lfemur -21.7648 -1.16205 -15.8696
ltibia 32.3357
lfoot -5.53033 -3.91006
ltoes -20.6283
471
root 17.971 18.1636 12.9741 231.564 -87.7164 128.521
lowerback 12.9528 1.33197 1.88154
upperback 2.58557 1.99435 1.89833
thorax -4.5424 0.916267 0.598696
lowerneck -5.89951 -4.39516 -10.7083
upperneck 42.3112 -11.5692 8.98286
head 17.9609 -6.27588 3.94889
rclavicle -4.07509e-014 -1.43125e-014
rhumerus -35.8113 -17.1261 -72.264
rradius 45.0848
rwrist 0.440771
rhand -18.2416 6.25906
rfingers 7.12502
rthumb 8.03712 -23.5681
lclavicle -4.07509e-014 -1.43125e-014
lhumerus -35.6558 12.5795 79.852
lradius 27.3888
lwrist -10.7514
lhand -16.3508 23.378
lfingers 7.12502
lthumb 9.8617 53.127
rfemur -2.42798 -2.23399 22.252
rtibia 24.5858
rfoot -14.5613 -7.91187
rtoes -2.25545
lfemur -21.931 -0.91482 -15.9427
ltibia 34.2362
lfoot -5.61054 -3.14011
ltoes -19.5216
